<svg xmlns="http://www.w3.org/2000/svg" xmlns:xlink="http://www.w3.org/1999/xlink" width="500" zoomAndPan="magnify" viewBox="0 0 375 374.999991" height="500" preserveAspectRatio="xMidYMid meet" version="1.0"><defs><clipPath id="6f81b2342c"><path d="M 117 157 L 125.652344 157 L 125.652344 159 L 117 159 Z M 117 157 " clip-rule="nonzero"/></clipPath><clipPath id="e9f69dd21d"><path d="M 124 157 L 125.652344 157 L 125.652344 159 L 124 159 Z M 124 157 " clip-rule="nonzero"/></clipPath><clipPath id="ad8f6095f7"><path d="M 47 173 L 54 173 L 54 176.597656 L 47 176.597656 Z M 47 173 " clip-rule="nonzero"/></clipPath><clipPath id="3331db8f6f"><path d="M 51 158 L 105 158 L 105 176.597656 L 51 176.597656 Z M 51 158 " clip-rule="nonzero"/></clipPath><clipPath id="bcc4e451cb"><path d="M 68 173 L 75 173 L 75 176.597656 L 68 176.597656 Z M 68 173 " clip-rule="nonzero"/></clipPath><clipPath id="71fdd54bfb"><path d="M 69 157 L 125.652344 157 L 125.652344 175 L 69 175 Z M 69 157 " clip-rule="nonzero"/></clipPath><clipPath id="268acad7b8"><path d="M 72 157 L 125.652344 157 L 125.652344 176.597656 L 72 176.597656 Z M 72 157 " clip-rule="nonzero"/></clipPath><clipPath id="02758333c4"><path d="M 45.402344 124 L 60 124 L 60 170 L 45.402344 170 Z M 45.402344 124 " clip-rule="nonzero"/></clipPath></defs><path fill="#6c391e" d="M 84.355469 173.839844 L 46.402344 173.839844 L 46.402344 174.980469 L 84.289062 174.980469 L 84.355469 173.839844 " fill-opacity="1" fill-rule="nonzero"/><path fill="#b07e55" d="M 88.894531 172.289062 L 50.941406 172.289062 L 46.402344 173.839844 L 84.355469 173.839844 L 88.894531 172.289062 " fill-opacity="1" fill-rule="nonzero"/><path fill="#915631" d="M 88.894531 172.289062 L 88.894531 173.082031 L 84.289062 174.980469 C 84.289062 174.980469 84.195312 173.894531 84.355469 173.839844 C 84.519531 173.785156 88.894531 172.289062 88.894531 172.289062 " fill-opacity="1" fill-rule="nonzero"/><path fill="#6c391e" d="M 93.574219 170.382812 L 56.625 170.382812 L 56.625 171.492188 L 93.507812 171.492188 L 93.574219 170.382812 " fill-opacity="1" fill-rule="nonzero"/><path fill="#b07e55" d="M 97.996094 168.871094 L 61.042969 168.871094 L 56.625 170.382812 L 93.574219 170.382812 L 97.996094 168.871094 " fill-opacity="1" fill-rule="nonzero"/><path fill="#915631" d="M 97.996094 168.871094 L 97.996094 169.644531 L 93.507812 171.492188 C 93.507812 171.492188 93.417969 170.4375 93.574219 170.382812 C 93.730469 170.328125 97.996094 168.871094 97.996094 168.871094 " fill-opacity="1" fill-rule="nonzero"/><path fill="#6c391e" d="M 100.371094 167.457031 L 69.355469 167.457031 L 69.355469 168.386719 L 100.316406 168.386719 L 100.371094 167.457031 " fill-opacity="1" fill-rule="nonzero"/><path fill="#b07e55" d="M 104.078125 166.1875 L 73.066406 166.1875 L 69.355469 167.457031 L 100.371094 167.457031 L 104.078125 166.1875 " fill-opacity="1" fill-rule="nonzero"/><path fill="#915631" d="M 104.078125 166.1875 L 104.078125 166.835938 L 100.316406 168.386719 C 100.316406 168.386719 100.238281 167.5 100.371094 167.457031 C 100.5 167.410156 104.078125 166.1875 104.078125 166.1875 " fill-opacity="1" fill-rule="nonzero"/><path fill="#6c391e" d="M 106.128906 165.164062 L 81.378906 165.164062 L 81.378906 165.90625 L 106.082031 165.90625 L 106.128906 165.164062 " fill-opacity="1" fill-rule="nonzero"/><path fill="#b07e55" d="M 109.085938 164.152344 L 84.339844 164.152344 L 81.378906 165.164062 L 106.128906 165.164062 L 109.085938 164.152344 " fill-opacity="1" fill-rule="nonzero"/><path fill="#915631" d="M 109.085938 164.152344 L 109.085938 164.667969 L 106.082031 165.90625 C 106.082031 165.90625 106.023438 165.199219 106.128906 165.164062 C 106.234375 165.125 109.085938 164.152344 109.085938 164.152344 " fill-opacity="1" fill-rule="nonzero"/><path fill="#6c391e" d="M 111.804688 163.253906 L 89.953125 163.253906 L 89.953125 163.910156 L 111.765625 163.910156 L 111.804688 163.253906 " fill-opacity="1" fill-rule="nonzero"/><path fill="#b07e55" d="M 114.417969 162.359375 L 92.566406 162.359375 L 89.953125 163.253906 L 111.804688 163.253906 L 114.417969 162.359375 " fill-opacity="1" fill-rule="nonzero"/><path fill="#915631" d="M 114.417969 162.359375 L 114.417969 162.816406 L 111.765625 163.910156 C 111.765625 163.910156 111.710938 163.285156 111.804688 163.253906 C 111.898438 163.21875 114.417969 162.359375 114.417969 162.359375 " fill-opacity="1" fill-rule="nonzero"/><path fill="#6c391e" d="M 115.625 161.761719 L 100.074219 161.761719 L 100.074219 162.230469 L 115.597656 162.230469 L 115.625 161.761719 " fill-opacity="1" fill-rule="nonzero"/><path fill="#b07e55" d="M 117.484375 161.125 L 101.933594 161.125 L 100.074219 161.761719 L 115.625 161.761719 L 117.484375 161.125 " fill-opacity="1" fill-rule="nonzero"/><path fill="#915631" d="M 117.484375 161.125 L 117.484375 161.449219 L 115.597656 162.230469 C 115.597656 162.230469 115.558594 161.785156 115.625 161.761719 C 115.691406 161.738281 117.484375 161.125 117.484375 161.125 " fill-opacity="1" fill-rule="nonzero"/><path fill="#6c391e" d="M 118.632812 160.601562 L 107.085938 160.601562 L 107.085938 160.949219 L 118.613281 160.949219 L 118.632812 160.601562 " fill-opacity="1" fill-rule="nonzero"/><path fill="#b07e55" d="M 120.015625 160.132812 L 108.46875 160.132812 L 107.085938 160.601562 L 118.632812 160.601562 L 120.015625 160.132812 " fill-opacity="1" fill-rule="nonzero"/><path fill="#915631" d="M 120.015625 160.132812 L 120.015625 160.375 L 118.613281 160.949219 C 118.613281 160.949219 118.585938 160.621094 118.632812 160.601562 C 118.683594 160.585938 120.015625 160.132812 120.015625 160.132812 " fill-opacity="1" fill-rule="nonzero"/><path fill="#6c391e" d="M 121.019531 159.644531 L 111.378906 159.644531 L 111.378906 159.9375 L 121.003906 159.9375 L 121.019531 159.644531 " fill-opacity="1" fill-rule="nonzero"/><path fill="#b07e55" d="M 122.171875 159.25 L 112.535156 159.25 L 111.378906 159.644531 L 121.019531 159.644531 L 122.171875 159.25 " fill-opacity="1" fill-rule="nonzero"/><path fill="#915631" d="M 122.171875 159.25 L 122.171875 159.453125 L 121.003906 159.9375 C 121.003906 159.9375 120.976562 159.660156 121.019531 159.644531 C 121.058594 159.632812 122.171875 159.25 122.171875 159.25 " fill-opacity="1" fill-rule="nonzero"/><path fill="#6c391e" d="M 123.0625 158.890625 L 115.84375 158.890625 L 115.84375 159.105469 L 123.046875 159.105469 L 123.0625 158.890625 " fill-opacity="1" fill-rule="nonzero"/><path fill="#b07e55" d="M 123.925781 158.59375 L 116.707031 158.59375 L 115.84375 158.890625 L 123.0625 158.890625 L 123.925781 158.59375 " fill-opacity="1" fill-rule="nonzero"/><path fill="#915631" d="M 123.925781 158.59375 L 123.925781 158.746094 L 123.046875 159.105469 C 123.046875 159.105469 123.03125 158.902344 123.0625 158.890625 C 123.09375 158.878906 123.925781 158.59375 123.925781 158.59375 " fill-opacity="1" fill-rule="nonzero"/><path fill="#6c391e" d="M 124.761719 158.234375 L 117.542969 158.234375 L 117.542969 158.449219 L 124.746094 158.449219 L 124.761719 158.234375 " fill-opacity="1" fill-rule="nonzero"/><g clip-path="url(#6f81b2342c)"><path fill="#b07e55" d="M 125.621094 157.9375 L 118.40625 157.9375 L 117.542969 158.234375 L 124.757812 158.234375 L 125.621094 157.9375 " fill-opacity="1" fill-rule="nonzero"/></g><g clip-path="url(#e9f69dd21d)"><path fill="#915631" d="M 125.621094 157.9375 L 125.621094 158.089844 L 124.746094 158.449219 C 124.746094 158.449219 124.730469 158.246094 124.757812 158.234375 C 124.789062 158.222656 125.621094 157.9375 125.621094 157.9375 " fill-opacity="1" fill-rule="nonzero"/></g><g clip-path="url(#ad8f6095f7)"><path fill="#6e6960" d="M 48.742188 173.746094 L 48.722656 174.777344 C 48.722656 174.777344 48.800781 175.574219 48.179688 175.675781 C 47.582031 175.773438 47.324219 175.78125 47.324219 175.78125 L 47.320312 176.109375 L 52.9375 176.222656 L 52.945312 175.894531 L 53.09375 173.558594 L 51.480469 173.261719 L 48.742188 173.746094 " fill-opacity="1" fill-rule="nonzero"/></g><path fill="#d9d5ca" d="M 104.203125 158.570312 L 48.742188 173.746094 L 51.46875 173.800781 L 104.660156 158.578125 L 104.203125 158.570312 " fill-opacity="1" fill-rule="nonzero"/><g clip-path="url(#3331db8f6f)"><path fill="#a49f93" d="M 51.46875 173.800781 L 51.445312 175.003906 C 51.445312 175.003906 51.484375 175.535156 51.9375 175.695312 C 52.386719 175.855469 52.945312 175.894531 52.945312 175.894531 L 52.9375 176.222656 L 104.652344 158.921875 L 104.660156 158.578125 L 51.46875 173.800781 " fill-opacity="1" fill-rule="nonzero"/></g><g clip-path="url(#bcc4e451cb)"><path fill="#6e6960" d="M 69.6875 174.121094 L 69.664062 175.152344 C 69.664062 175.152344 69.746094 175.949219 69.125 176.050781 C 68.523438 176.148438 68.269531 176.152344 68.269531 176.152344 L 68.261719 176.480469 L 73.878906 176.597656 L 73.886719 176.265625 L 74.035156 173.933594 L 72.421875 173.632812 L 69.6875 174.121094 " fill-opacity="1" fill-rule="nonzero"/></g><g clip-path="url(#71fdd54bfb)"><path fill="#d9d5ca" d="M 125.144531 157.511719 L 69.6875 174.121094 L 72.414062 174.175781 L 125.605469 157.519531 L 125.144531 157.511719 " fill-opacity="1" fill-rule="nonzero"/></g><g clip-path="url(#268acad7b8)"><path fill="#a49f93" d="M 72.414062 174.175781 L 72.386719 175.378906 C 72.386719 175.378906 72.429688 175.910156 72.878906 176.070312 C 73.332031 176.230469 73.886719 176.265625 73.886719 176.265625 L 73.878906 176.597656 L 125.597656 157.863281 L 125.605469 157.519531 L 72.414062 174.175781 " fill-opacity="1" fill-rule="nonzero"/></g><path fill="#5aa0dd" d="M 68.261719 123.113281 C 68.261719 123.113281 74.8125 122.597656 87.296875 126.234375 C 99.777344 129.875 120.117188 136.640625 121.878906 137.863281 C 123.640625 139.082031 125.183594 144.65625 123.925781 155.652344 C 123.253906 156.691406 117.417969 159.542969 117.417969 159.542969 L 84.550781 169.070312 L 78.054688 170.9375 L 68.261719 123.113281 " fill-opacity="1" fill-rule="nonzero"/><path fill="#1b354d" d="M 81.378906 160.777344 L 124.042969 154.546875 C 124.042969 154.546875 123.988281 155.585938 123.800781 156.691406 C 123.609375 157.796875 121.691406 157.9375 121.691406 157.9375 L 117.417969 159.542969 L 79.152344 170.644531 L 79.746094 166.570312 L 81.378906 160.777344 " fill-opacity="1" fill-rule="nonzero"/><path fill="#404c52" d="M 84.550781 169.070312 C 84.550781 169.070312 85.574219 167.871094 86.285156 165.160156 C 86.996094 162.453125 86.855469 161.75 86.855469 161.75 L 96.507812 160.492188 C 96.507812 160.492188 96.496094 161.289062 96.328125 162.832031 C 96.164062 164.378906 94.023438 166.527344 94.023438 166.527344 L 84.550781 169.070312 " fill-opacity="1" fill-rule="nonzero"/><path fill="#0b0c0d" d="M 91.683594 160.625 C 91.683594 160.625 91.734375 163.1875 91.496094 163.773438 C 91.257812 164.351562 90.101562 165.066406 90.101562 165.066406 C 90.101562 165.066406 89.992188 164.601562 90.046875 164.566406 C 90.105469 164.53125 91.128906 163.925781 91.222656 163.488281 C 91.320312 163.046875 91.261719 161.175781 91.261719 161.175781 L 91.683594 160.625 " fill-opacity="1" fill-rule="nonzero"/><path fill="#0b0c0d" d="M 93.253906 162.15625 C 93.21875 162.15625 89.855469 162.707031 89.855469 162.707031 L 90.109375 163.128906 L 93.148438 162.84375 L 93.253906 162.15625 " fill-opacity="1" fill-rule="nonzero"/><path fill="#0b0c0d" d="M 91.035156 164.496094 L 90.25 166.085938 L 90.25 166.644531 C 90.25 166.644531 93.039062 166.289062 93.089844 165.898438 C 93.136719 165.503906 93.078125 163.960938 93.039062 163.925781 C 93.003906 163.890625 92.578125 163.886719 92.496094 163.582031 C 92.410156 163.273438 92.386719 162.773438 92.386719 162.773438 L 92.101562 162.714844 C 92.101562 162.714844 91.828125 163.796875 91.6875 163.996094 C 91.542969 164.199219 91.035156 164.496094 91.035156 164.496094 " fill-opacity="1" fill-rule="nonzero"/><path fill="#151a1c" d="M 88.652344 168.9375 L 86.992188 168.9375 L 86.714844 169.023438 C 86.714844 169.023438 85.730469 168.191406 85.875 164.859375 C 86.015625 161.527344 86.84375 160.8125 86.84375 160.8125 L 88.421875 161.4375 L 88.652344 168.9375 " fill-opacity="1" fill-rule="nonzero"/><path fill="#242d31" d="M 90.558594 164.714844 C 90.558594 167.046875 89.726562 168.9375 88.703125 168.9375 C 87.675781 168.9375 86.84375 167.046875 86.84375 164.714844 C 86.84375 162.382812 87.675781 160.492188 88.703125 160.492188 C 89.726562 160.492188 90.558594 162.382812 90.558594 164.714844 " fill-opacity="1" fill-rule="nonzero"/><path fill="#0b0c0d" d="M 88.703125 161.207031 C 88.585938 161.207031 88.476562 161.242188 88.371094 161.304688 C 88.984375 161.679688 89.445312 163.0625 89.445312 164.714844 C 89.445312 166.367188 88.984375 167.753906 88.371094 168.125 C 88.476562 168.191406 88.585938 168.226562 88.703125 168.226562 C 89.480469 168.226562 90.109375 166.65625 90.109375 164.714844 C 90.109375 162.777344 89.480469 161.207031 88.703125 161.207031 " fill-opacity="1" fill-rule="nonzero"/><path fill="#151a1c" d="M 89.445312 164.714844 C 89.445312 163.0625 88.984375 161.679688 88.371094 161.304688 C 87.753906 161.679688 87.296875 163.0625 87.296875 164.714844 C 87.296875 166.367188 87.753906 167.753906 88.371094 168.125 C 88.984375 167.753906 89.445312 166.367188 89.445312 164.714844 " fill-opacity="1" fill-rule="nonzero"/><path fill="#151a1c" d="M 94.980469 166.96875 L 93.578125 166.96875 L 93.34375 167.039062 C 93.34375 167.039062 92.519531 166.335938 92.640625 163.53125 C 92.757812 160.722656 93.457031 160.121094 93.457031 160.121094 L 94.785156 160.648438 L 94.980469 166.96875 " fill-opacity="1" fill-rule="nonzero"/><path fill="#242d31" d="M 96.585938 163.410156 C 96.585938 165.375 95.882812 166.96875 95.019531 166.96875 C 94.15625 166.96875 93.457031 165.375 93.457031 163.410156 C 93.457031 161.445312 94.15625 159.851562 95.019531 159.851562 C 95.882812 159.851562 96.585938 161.445312 96.585938 163.410156 " fill-opacity="1" fill-rule="nonzero"/><path fill="#0b0c0d" d="M 95.019531 160.453125 C 94.925781 160.453125 94.832031 160.480469 94.742188 160.535156 C 95.261719 160.851562 95.644531 162.019531 95.644531 163.410156 C 95.644531 164.800781 95.261719 165.96875 94.742188 166.285156 C 94.832031 166.339844 94.925781 166.367188 95.019531 166.367188 C 95.675781 166.367188 96.207031 165.042969 96.207031 163.410156 C 96.207031 161.777344 95.675781 160.453125 95.019531 160.453125 " fill-opacity="1" fill-rule="nonzero"/><path fill="#151a1c" d="M 95.644531 163.410156 C 95.644531 162.019531 95.261719 160.851562 94.742188 160.535156 C 94.222656 160.851562 93.835938 162.019531 93.835938 163.410156 C 93.835938 164.800781 94.222656 165.96875 94.742188 166.285156 C 95.261719 165.96875 95.644531 164.800781 95.644531 163.410156 " fill-opacity="1" fill-rule="nonzero"/><path fill="#151a1c" d="M 89.9375 161.863281 C 89.988281 161.863281 93.253906 161.304688 93.253906 161.304688 L 93.457031 160.8125 L 89.628906 161.386719 L 89.9375 161.863281 " fill-opacity="1" fill-rule="nonzero"/><path fill="#1b354d" d="M 96.507812 160.492188 L 86.84375 161.863281 C 86.84375 161.863281 86.640625 165.054688 85.902344 166.496094 C 85.160156 167.941406 83.742188 163.855469 83.816406 163.855469 C 83.886719 163.855469 85.214844 160.910156 85.382812 160.8125 C 85.546875 160.71875 90.25 159.636719 90.25 159.636719 L 98.109375 159.125 L 96.507812 160.492188 " fill-opacity="1" fill-rule="nonzero"/><path fill="#404c52" d="M 117.417969 159.542969 C 117.417969 159.542969 117.929688 158.921875 118.285156 157.566406 C 118.644531 156.210938 118.570312 155.859375 118.570312 155.859375 L 123.367188 154.996094 C 123.367188 154.996094 123.398438 155.628906 123.316406 156.402344 C 123.234375 157.175781 122.519531 158.019531 122.519531 158.019531 L 117.417969 159.542969 " fill-opacity="1" fill-rule="nonzero"/><path fill="#0b0c0d" d="M 120.988281 155.296875 C 120.988281 155.296875 121.015625 156.582031 120.898438 156.871094 C 120.777344 157.164062 120.199219 157.519531 120.199219 157.519531 C 120.199219 157.519531 120.144531 157.289062 120.171875 157.269531 C 120.199219 157.253906 120.710938 156.949219 120.761719 156.730469 C 120.808594 156.507812 120.78125 155.574219 120.78125 155.574219 L 120.988281 155.296875 " fill-opacity="1" fill-rule="nonzero"/><path fill="#0b0c0d" d="M 121.777344 156.0625 C 121.757812 156.0625 120.074219 156.339844 120.074219 156.339844 L 120.203125 156.550781 L 121.722656 156.40625 L 121.777344 156.0625 " fill-opacity="1" fill-rule="nonzero"/><path fill="#0b0c0d" d="M 120.664062 157.234375 L 120.273438 158.03125 L 120.273438 158.3125 C 120.273438 158.3125 121.667969 158.132812 121.691406 157.9375 C 121.71875 157.742188 121.6875 156.96875 121.667969 156.949219 C 121.652344 156.929688 121.4375 156.929688 121.394531 156.777344 C 121.355469 156.621094 121.34375 156.371094 121.34375 156.371094 L 121.199219 156.34375 C 121.199219 156.34375 121.0625 156.882812 120.992188 156.984375 C 120.921875 157.085938 120.664062 157.234375 120.664062 157.234375 " fill-opacity="1" fill-rule="nonzero"/><path fill="#151a1c" d="M 119.472656 159.460938 L 118.640625 159.460938 L 118.5 159.5 C 118.5 159.5 118.011719 159.085938 118.082031 157.414062 C 118.152344 155.746094 118.566406 155.390625 118.566406 155.390625 L 119.355469 155.703125 L 119.472656 159.460938 " fill-opacity="1" fill-rule="nonzero"/><path fill="#242d31" d="M 120.425781 157.34375 C 120.425781 158.511719 120.011719 159.460938 119.496094 159.460938 C 118.984375 159.460938 118.566406 158.511719 118.566406 157.34375 C 118.566406 156.175781 118.984375 155.230469 119.496094 155.230469 C 120.011719 155.230469 120.425781 156.175781 120.425781 157.34375 " fill-opacity="1" fill-rule="nonzero"/><path fill="#0b0c0d" d="M 119.496094 155.585938 C 119.441406 155.585938 119.382812 155.605469 119.332031 155.636719 C 119.640625 155.824219 119.867188 156.515625 119.867188 157.34375 C 119.867188 158.171875 119.640625 158.867188 119.332031 159.050781 C 119.382812 159.085938 119.441406 159.101562 119.496094 159.101562 C 119.886719 159.101562 120.203125 158.316406 120.203125 157.34375 C 120.203125 156.375 119.886719 155.585938 119.496094 155.585938 " fill-opacity="1" fill-rule="nonzero"/><path fill="#151a1c" d="M 119.867188 157.34375 C 119.867188 156.515625 119.640625 155.824219 119.332031 155.636719 C 119.023438 155.824219 118.792969 156.515625 118.792969 157.34375 C 118.792969 158.171875 119.023438 158.867188 119.332031 159.050781 C 119.640625 158.867188 119.867188 158.171875 119.867188 157.34375 " fill-opacity="1" fill-rule="nonzero"/><path fill="#151a1c" d="M 122.640625 158.472656 L 121.9375 158.472656 L 121.820312 158.507812 C 121.820312 158.507812 121.410156 158.15625 121.46875 156.75 C 121.527344 155.34375 121.878906 155.042969 121.878906 155.042969 L 122.542969 155.308594 L 122.640625 158.472656 " fill-opacity="1" fill-rule="nonzero"/><path fill="#242d31" d="M 123.445312 156.691406 C 123.445312 157.675781 123.09375 158.472656 122.660156 158.472656 C 122.226562 158.472656 121.878906 157.675781 121.878906 156.691406 C 121.878906 155.707031 122.226562 154.910156 122.660156 154.910156 C 123.09375 154.910156 123.445312 155.707031 123.445312 156.691406 " fill-opacity="1" fill-rule="nonzero"/><path fill="#0b0c0d" d="M 122.660156 155.210938 C 122.613281 155.210938 122.566406 155.226562 122.519531 155.25 C 122.78125 155.410156 122.972656 155.992188 122.972656 156.691406 C 122.972656 157.386719 122.78125 157.972656 122.519531 158.128906 C 122.566406 158.15625 122.613281 158.171875 122.660156 158.171875 C 122.988281 158.171875 123.253906 157.507812 123.253906 156.691406 C 123.253906 155.871094 122.988281 155.210938 122.660156 155.210938 " fill-opacity="1" fill-rule="nonzero"/><path fill="#151a1c" d="M 122.972656 156.691406 C 122.972656 155.992188 122.78125 155.410156 122.519531 155.25 C 122.261719 155.410156 122.070312 155.992188 122.070312 156.691406 C 122.070312 157.386719 122.261719 157.972656 122.519531 158.128906 C 122.78125 157.972656 122.972656 157.386719 122.972656 156.691406 " fill-opacity="1" fill-rule="nonzero"/><path fill="#151a1c" d="M 120.113281 155.917969 C 120.140625 155.917969 121.777344 155.636719 121.777344 155.636719 L 121.878906 155.390625 L 119.960938 155.679688 L 120.113281 155.917969 " fill-opacity="1" fill-rule="nonzero"/><path fill="#1b354d" d="M 123.445312 155.074219 L 118.566406 155.917969 C 118.566406 155.917969 118.464844 157.511719 118.09375 158.234375 C 117.722656 158.957031 117.015625 156.914062 117.050781 156.914062 C 117.085938 156.914062 117.335938 155.589844 117.417969 155.542969 C 117.503906 155.492188 120.394531 155.078125 120.394531 155.078125 L 123.777344 154.585938 L 123.445312 155.074219 " fill-opacity="1" fill-rule="nonzero"/><path fill="#5aa0dd" d="M 59.835938 124.609375 C 59.835938 124.609375 63.347656 123.003906 69.140625 123.121094 C 74.9375 123.234375 78.726562 124.257812 78.726562 124.257812 L 75.332031 152.609375 C 75.332031 152.609375 50.578125 151.019531 50.804688 150.679688 C 51.03125 150.335938 53.304688 132.941406 53.304688 132.941406 L 59.835938 124.609375 " fill-opacity="1" fill-rule="nonzero"/><path fill="#5aa0dd" d="M 51.300781 154.121094 L 51.300781 167.15625 L 75.332031 167.15625 L 74.433594 153.160156 L 51.300781 154.121094 " fill-opacity="1" fill-rule="nonzero"/><path fill="#245286" d="M 46.65625 169.480469 C 46.65625 169.480469 46.300781 170.339844 50.140625 170.59375 C 53.976562 170.84375 75.996094 171.703125 78.574219 170.84375 C 81.148438 169.984375 81.566406 169.480469 81.566406 169.480469 L 78.421875 166.851562 L 72.171875 165.488281 C 72.171875 165.488281 54.027344 165.792969 51.855469 165.1875 C 49.683594 164.578125 46.65625 169.480469 46.65625 169.480469 " fill-opacity="1" fill-rule="nonzero"/><path fill="#2f60a4" d="M 78.726562 124.148438 C 78.726562 124.148438 75.46875 130.953125 73.800781 141.589844 C 72.132812 152.222656 71.605469 164.011719 72.171875 165.488281 C 72.742188 166.96875 80.050781 169.53125 81.566406 169.480469 C 83.082031 169.429688 82.210938 153.210938 83.726562 142.675781 C 85.238281 132.140625 87.3125 129.664062 87.132812 128.578125 C 86.578125 125.214844 81.605469 124.832031 78.726562 124.148438 " fill-opacity="1" fill-rule="nonzero"/><g clip-path="url(#02758333c4)"><path fill="#2f60a4" d="M 59.835938 124.609375 C 59.835938 124.609375 56.148438 130.269531 53.675781 139.566406 C 51.199219 148.863281 53.019531 164.628906 52.511719 165.792969 C 52.007812 166.953125 47.109375 169.480469 46.65625 169.480469 C 46.199219 169.480469 45.441406 161.421875 46.074219 154.839844 C 46.707031 148.257812 47.511719 140.691406 51.148438 131.734375 C 53.417969 126.152344 56.300781 125.671875 59.835938 124.609375 " fill-opacity="1" fill-rule="nonzero"/></g><path fill="#162a39" d="M 57.261719 132.238281 L 74.433594 132.238281 C 74.433594 132.238281 73.320312 135.019531 72.941406 137.269531 C 72.5625 139.515625 72.386719 141.738281 72.386719 141.738281 L 54.128906 141.738281 C 54.128906 141.738281 54.582031 139.261719 55.46875 136.28125 C 56.351562 133.300781 57.261719 132.238281 57.261719 132.238281 " fill-opacity="1" fill-rule="nonzero"/><path fill="#0e1921" d="M 54.835938 139.792969 L 72.285156 139.792969 L 72.082031 141.589844 L 54.40625 141.589844 L 54.835938 139.792969 " fill-opacity="1" fill-rule="nonzero"/><path fill="#ebc337" d="M 67.046875 128.773438 C 66.878906 130.082031 66.058594 131.054688 65.210938 130.945312 C 64.363281 130.835938 63.8125 129.6875 63.980469 128.378906 C 64.144531 127.074219 64.96875 126.101562 65.816406 126.207031 C 66.660156 126.316406 67.210938 127.464844 67.046875 128.773438 " fill-opacity="1" fill-rule="nonzero"/><path fill="#0e1921" d="M 54.9375 163.441406 L 54.9375 159.199219 C 54.9375 158.652344 55.378906 158.210938 55.921875 158.210938 L 67.640625 158.210938 C 68.183594 158.210938 68.625 158.652344 68.625 159.199219 L 68.625 163.441406 C 68.625 163.988281 68.183594 164.429688 67.640625 164.429688 L 55.921875 164.429688 C 55.378906 164.429688 54.9375 163.988281 54.9375 163.441406 " fill-opacity="1" fill-rule="nonzero"/><path fill="#08090a" d="M 55.949219 164.097656 C 55.949219 164.097656 58.472656 159.703125 58.75 159.628906 C 59.027344 159.550781 63.726562 159.425781 64.304688 159.753906 C 64.886719 160.082031 67.335938 164.300781 67.335938 164.300781 C 67.335938 164.300781 56.046875 164.277344 55.949219 164.097656 " fill-opacity="1" fill-rule="nonzero"/><path fill="#2e4352" d="M 56.199219 141.589844 L 54.292969 141.589844 C 54.292969 141.589844 54.558594 139.921875 54.863281 139.390625 L 63.699219 132.390625 L 67.4375 132.390625 L 58.390625 139.792969 L 54.835938 139.792969 L 54.40625 141.589844 L 56.199219 141.589844 " fill-opacity="1" fill-rule="nonzero"/><path fill="#23323a" d="M 56.199219 141.589844 L 54.40625 141.589844 L 54.835938 139.792969 L 58.390625 139.792969 L 56.199219 141.589844 " fill-opacity="1" fill-rule="nonzero"/><path fill="#478ece" d="M 53.953125 142.648438 L 72.160156 142.648438 L 71.953125 143.355469 C 71.953125 143.355469 67.414062 144.394531 61.476562 144.59375 C 55.542969 144.796875 53.851562 143.203125 53.851562 143.203125 L 53.953125 142.648438 " fill-opacity="1" fill-rule="nonzero"/><path fill="#2f60a4" d="M 86.550781 127.175781 L 122.660156 138.730469 C 122.660156 138.730469 122.464844 138.199219 121.746094 137.78125 C 121.023438 137.359375 84.097656 124.464844 81.980469 124.835938 C 79.859375 125.203125 86.550781 127.175781 86.550781 127.175781 " fill-opacity="1" fill-rule="nonzero"/><path fill="#162a39" d="M 88.371094 131.777344 C 88.371094 131.777344 87.171875 134.046875 86.453125 137.304688 C 85.730469 140.566406 85.203125 143.824219 85.617188 143.863281 C 86.035156 143.902344 91.519531 144.65625 91.6875 144.304688 C 91.855469 143.953125 91.6875 132.1875 91.6875 131.777344 C 91.6875 131.367188 88.519531 130.773438 88.371094 131.777344 " fill-opacity="1" fill-rule="nonzero"/><path fill="#162a39" d="M 94.230469 132.984375 L 123.058594 140.691406 L 123.484375 143.902344 L 94.230469 140.363281 L 94.230469 132.984375 " fill-opacity="1" fill-rule="nonzero"/><path fill="#2f60a4" d="M 82.132812 148.222656 L 124.382812 149.28125 L 124.347656 150.246094 C 124.347656 150.246094 91.710938 150.722656 88.703125 151.480469 C 85.695312 152.238281 84.984375 159.914062 82.433594 160.625 C 79.886719 161.332031 82.132812 148.222656 82.132812 148.222656 " fill-opacity="1" fill-rule="nonzero"/><path fill="#c5dadb" d="M 46.707031 148.863281 L 78.472656 148.863281 C 78.472656 148.863281 84.332031 148.207031 84.558594 149.191406 C 84.785156 150.179688 83.726562 153.855469 79.105469 154.648438 C 74.484375 155.445312 46.074219 154.839844 46.074219 154.839844 L 46.707031 148.863281 " fill-opacity="1" fill-rule="nonzero"/><path fill="#f68622" d="M 73.839844 151.855469 C 73.839844 152.796875 73.328125 153.5625 72.695312 153.5625 C 72.066406 153.5625 71.554688 152.796875 71.554688 151.855469 C 71.554688 150.914062 72.066406 150.148438 72.695312 150.148438 C 73.328125 150.148438 73.839844 150.914062 73.839844 151.855469 " fill-opacity="1" fill-rule="nonzero"/><path fill="#f68622" d="M 77.382812 151.855469 C 77.382812 152.796875 76.871094 153.5625 76.242188 153.5625 C 75.609375 153.5625 75.097656 152.796875 75.097656 151.855469 C 75.097656 150.914062 75.609375 150.148438 76.242188 150.148438 C 76.871094 150.148438 77.382812 150.914062 77.382812 151.855469 " fill-opacity="1" fill-rule="nonzero"/><path fill="#f68622" d="M 48.910156 151.855469 C 48.910156 152.796875 48.484375 153.5625 47.960938 153.5625 C 47.433594 153.5625 47.007812 152.796875 47.007812 151.855469 C 47.007812 150.914062 47.433594 150.148438 47.960938 150.148438 C 48.484375 150.148438 48.910156 150.914062 48.910156 151.855469 " fill-opacity="1" fill-rule="nonzero"/><path fill="#f68622" d="M 51.871094 151.855469 C 51.871094 152.796875 51.441406 153.5625 50.917969 153.5625 C 50.390625 153.5625 49.964844 152.796875 49.964844 151.855469 C 49.964844 150.914062 50.390625 150.148438 50.917969 150.148438 C 51.441406 150.148438 51.871094 150.914062 51.871094 151.855469 " fill-opacity="1" fill-rule="nonzero"/></svg>