<svg xmlns="http://www.w3.org/2000/svg" xmlns:xlink="http://www.w3.org/1999/xlink" width="500" zoomAndPan="magnify" viewBox="0 0 375 374.999991" height="500" preserveAspectRatio="xMidYMid meet" version="1.0"><defs><clipPath id="4355de051b"><path d="M 181.109375 42.160156 L 243.359375 42.160156 L 243.359375 105.160156 L 181.109375 105.160156 Z M 181.109375 42.160156 " clip-rule="nonzero"/></clipPath></defs><g clip-path="url(#4355de051b)"><path fill="#ffc903" d="M 181.109375 73.683594 L 212.117188 42.171875 L 243.359375 73.683594 L 212.117188 105.148438 Z M 181.109375 73.683594 " fill-opacity="1" fill-rule="nonzero"/></g><path fill="#ffc903" d="M 183.410156 73.679688 L 212.121094 44.5 L 241.058594 73.679688 L 212.121094 102.820312 Z M 183.410156 73.679688 " fill-opacity="1" fill-rule="nonzero"/><path fill="#000000" d="M 212.121094 103.722656 L 182.519531 73.679688 L 212.121094 43.59375 L 241.953125 73.679688 Z M 184.300781 73.679688 L 212.125 101.921875 L 240.164062 73.679688 L 212.125 45.402344 Z M 184.300781 73.679688 " fill-opacity="1" fill-rule="nonzero"/><path fill="#001b14" d="M 211.578125 78.226562 C 210.132812 81.769531 208.957031 84.984375 207.46875 88.632812 C 206.570312 88.203125 205.691406 87.882812 204.761719 87.507812 C 204.90625 86.914062 205.113281 86.21875 205.246094 85.703125 C 206.035156 82.617188 206.851562 79.539062 207.589844 76.441406 C 207.636719 75.230469 207.5625 75.027344 207.621094 74.324219 C 207.863281 71.414062 207.882812 71.160156 208.4375 68.574219 C 208.515625 68.207031 208.578125 68.140625 208.695312 67.78125 C 208.292969 67.859375 207.992188 67.917969 207.609375 67.992188 C 207.398438 69.867188 207.191406 71.722656 206.972656 73.664062 C 206.375 73.765625 205.664062 73.84375 205.121094 73.9375 C 205.082031 73.210938 204.894531 68.011719 205.125 66.386719 C 207.660156 64.8125 207.730469 64.78125 209.449219 63.945312 C 211.425781 63.015625 211.636719 62.9375 212.792969 62.546875 C 213.804688 62.203125 214.675781 62.609375 215.214844 63.429688 C 215.84375 64.382812 216.332031 65.441406 216.796875 66.488281 C 217.105469 67.1875 217.269531 67.953125 217.503906 68.699219 C 218.328125 69.230469 219.144531 69.761719 219.964844 70.289062 C 220.761719 70.796875 221.5625 71.300781 222.480469 71.882812 C 222.199219 72.453125 221.945312 72.921875 221.652344 73.46875 C 219.789062 72.875 217.867188 72.253906 216.089844 71.621094 C 215.671875 71.472656 215.367188 70.996094 214.957031 70.625 C 214.675781 71.566406 214.382812 72.554688 214.097656 73.523438 C 214.691406 74.5625 215.222656 75.5625 215.828125 76.515625 C 216.621094 77.765625 217.140625 79.109375 217.503906 80.546875 C 218.050781 82.707031 218.691406 84.847656 219.332031 87.15625 C 218.324219 87.523438 217.367188 87.875 216.335938 88.25 C 216.175781 87.894531 216.03125 87.632812 215.933594 87.351562 C 215.203125 85.238281 214.480469 83.121094 213.753906 81.007812 C 213.335938 79.785156 212.792969 79.085938 211.578125 78.226562 Z M 211.578125 78.226562 " fill-opacity="1" fill-rule="nonzero"/><path fill="#001b14" d="M 217.671875 59.507812 C 217.671875 59.863281 217.601562 60.207031 217.46875 60.535156 C 217.332031 60.863281 217.140625 61.152344 216.890625 61.402344 C 216.640625 61.652344 216.355469 61.847656 216.027344 61.980469 C 215.703125 62.117188 215.363281 62.183594 215.011719 62.183594 C 214.65625 62.183594 214.316406 62.117188 213.992188 61.980469 C 213.667969 61.847656 213.378906 61.652344 213.128906 61.402344 C 212.878906 61.152344 212.6875 60.863281 212.550781 60.535156 C 212.417969 60.207031 212.351562 59.863281 212.351562 59.507812 C 212.351562 59.15625 212.417969 58.8125 212.550781 58.484375 C 212.6875 58.15625 212.878906 57.867188 213.128906 57.617188 C 213.378906 57.367188 213.667969 57.171875 213.992188 57.039062 C 214.316406 56.902344 214.65625 56.832031 215.011719 56.832031 C 215.363281 56.832031 215.703125 56.902344 216.027344 57.039062 C 216.355469 57.171875 216.640625 57.367188 216.890625 57.617188 C 217.140625 57.867188 217.332031 58.15625 217.46875 58.484375 C 217.601562 58.8125 217.671875 59.15625 217.671875 59.507812 Z M 217.671875 59.507812 " fill-opacity="1" fill-rule="nonzero"/></svg>